<?xml version="1.0" encoding="utf-8"?>
<!-- Generator: Adobe Illustrator 18.0.0, SVG Export Plug-In . SVG Version: 6.00 Build 0)  -->
<!DOCTYPE svg PUBLIC "-//W3C//DTD SVG 1.1//EN" "http://www.w3.org/Graphics/SVG/1.1/DTD/svg11.dtd">
<svg version="1.1" id="图层_1" xmlns="http://www.w3.org/2000/svg" xmlns:xlink="http://www.w3.org/1999/xlink" x="0px" y="0px"
	 viewBox="0 0 200 200" enable-background="new 0 0 200 200" xml:space="preserve">
<path fill="#FD5147" d="M100,0C45,0,0,45,0,100s45,100,100,100s100-45,100-100S155,0,100,0z M100,171.4c-7.9,0-14.3-6.4-14.3-14.3
	c0-7.9,6.4-14.3,14.3-14.3s14.3,6.4,14.3,14.3C114.3,165,107.9,171.4,100,171.4z M114.3,100c0,7.9-6.4,14.3-14.3,14.3
	s-14.3-6.4-14.3-14.3V42.9c0-7.9,6.4-14.3,14.3-14.3s14.3,6.4,14.3,14.3V100z"/>
</svg>
